<svg width="271" height="297" viewBox="0 0 271 297" fill="none" xmlns="http://www.w3.org/2000/svg">
<path d="M40.3216 272.902C92.8718 304.367 178.083 304.367 230.657 272.902C283.231 241.436 283.214 190.492 230.657 159.053C178.101 127.614 92.8955 127.614 40.3452 159.053C-12.2051 190.492 -12.2346 241.463 40.3216 272.902Z" fill="#F5F5F5"/>
<path d="M37.1665 216.305L35.6521 215.324C35.004 214.851 34.4647 214.213 34.0782 213.463C33.6917 212.712 33.4688 211.87 33.4277 211.004V62.3182C33.4688 61.4529 33.6917 60.6107 34.0782 59.86C34.4647 59.1094 35.004 58.4715 35.6521 57.9983L96.8809 18.4034C97.5712 18.0116 98.3343 17.8075 99.1082 17.8075C99.8821 17.8075 100.645 18.0116 101.335 18.4034L102.874 19.384C103.522 19.8572 104.061 20.4951 104.447 21.2457C104.834 21.9964 105.057 22.8386 105.098 23.7039V172.39C105.057 173.255 104.834 174.098 104.447 174.848C104.061 175.599 103.522 176.237 102.874 176.71L41.6271 216.305C40.9357 216.697 40.1717 216.901 39.3968 216.901C38.6219 216.901 37.8579 216.697 37.1665 216.305Z" fill="#37474F"/>
<path d="M42.386 65.2269L34.1039 59.8601C33.7037 60.6041 33.4797 61.4502 33.4531 62.3183V211.004C33.4942 211.87 33.7171 212.712 34.1036 213.463C34.4901 214.213 35.0294 214.851 35.6775 215.324L37.1919 216.305C37.8833 216.697 38.6473 216.901 39.4222 216.901C40.1971 216.901 40.9611 216.697 41.6525 216.305L42.4097 215.815L42.386 65.2269Z" fill="#263238"/>
<path d="M39.3887 66.181V214.867C39.3887 216.457 40.3884 217.1 41.6189 216.305L102.865 176.71C103.514 176.237 104.053 175.599 104.439 174.848C104.826 174.098 105.049 173.256 105.09 172.39V23.704C105.09 22.1138 104.096 21.4711 102.865 22.2662L41.6189 61.8677C40.9721 62.3415 40.4335 62.9785 40.0461 63.7275C39.6588 64.4766 39.4337 65.3169 39.3887 66.181Z" fill="#455A64"/>
<path d="M44.301 75.5764L99.9748 39.5792C101.028 38.9166 101.886 39.4533 101.886 40.8182V159.417C101.849 160.16 101.657 160.883 101.325 161.528C100.993 162.172 100.531 162.72 99.9748 163.128L44.301 199.138C43.242 199.801 42.3901 199.264 42.3901 197.899V79.3C42.4223 78.5541 42.6124 77.8275 42.9446 77.1801C43.2769 76.5327 43.7417 75.983 44.301 75.5764Z" fill="#FAFAFA"/>
<path d="M72.2413 45.9203C73.0636 45.3903 73.7321 45.8209 73.7321 46.8877C73.7046 47.4676 73.5552 48.0321 73.2962 48.5352C73.0371 49.0383 72.6757 49.4659 72.2413 49.7831C71.4131 50.3197 70.7446 49.8824 70.7446 48.8223C70.7729 48.2409 70.9231 47.6751 71.1831 47.1709C71.4432 46.6667 71.8057 46.2382 72.2413 45.9203Z" fill="#263238"/>
<path d="M67.9265 54.2748C70.9613 52.3998 76.3684 48.7888 79.3618 46.821C79.8706 46.4831 80.2788 46.715 80.2788 47.3378C80.2553 47.6847 80.1597 48.0206 79.9994 48.3186C79.8391 48.6166 79.6187 48.8684 79.3559 49.0538L67.9028 56.4613C67.3941 56.7926 66.98 56.554 66.98 55.9379C67.0061 55.5957 67.1059 55.2656 67.2707 54.976C67.4356 54.6864 67.6606 54.4458 67.9265 54.2748Z" fill="#263238"/>
<path d="M65.0134 56.1495C65.4748 55.8448 65.8475 56.0899 65.8475 56.6862C65.8328 57.0123 65.7496 57.3298 65.6047 57.613C65.4597 57.8963 65.2572 58.1372 65.0134 58.3161C64.552 58.6143 64.1733 58.3691 64.1733 57.7728C64.1901 57.4475 64.2748 57.1311 64.4207 56.8491C64.5666 56.5671 64.7696 56.3275 65.0134 56.1495Z" fill="#263238"/>
<path d="M72.2482 184.926C73.8928 183.859 75.2061 184.721 75.2061 186.854C75.1532 188.011 74.8579 189.139 74.3441 190.145C73.8302 191.151 73.1123 192.007 72.2482 192.645C70.5977 193.712 69.2607 192.85 69.2607 190.717C69.317 189.556 69.6168 188.427 70.1359 187.421C70.655 186.415 71.3787 185.56 72.2482 184.926Z" fill="#263238"/>
<path d="M134.52 208.818C134.156 208.54 133.856 208.17 133.643 207.739C133.431 207.307 133.312 206.826 133.295 206.333V127.236C133.32 126.728 133.451 126.233 133.678 125.792C133.905 125.351 134.222 124.976 134.603 124.698L225.204 66.1144C225.582 65.8474 226.018 65.7011 226.465 65.6914C226.912 65.6816 227.353 65.8087 227.74 66.0589C228.127 66.3091 228.446 66.673 228.662 67.1113C228.878 67.5496 228.983 68.0457 228.966 68.546V147.643C228.942 148.151 228.811 148.646 228.584 149.087C228.357 149.528 228.04 149.903 227.659 150.181L137.058 208.771C136.667 209.001 136.235 209.124 135.794 209.132C135.353 209.14 134.917 209.033 134.52 208.818Z" fill="#455A64"/>
<path d="M228.951 68.3008C228.856 67.5455 228.312 67.2672 227.656 67.6979L137.055 126.282C136.668 126.551 136.35 126.927 136.132 127.375L133.677 125.792C133.895 125.344 134.213 124.967 134.6 124.698L225.206 66.1077C225.568 65.852 225.984 65.7071 226.411 65.6877C226.839 65.6683 227.263 65.7749 227.642 65.997C228.022 66.219 228.342 66.5487 228.572 66.953C228.801 67.3573 228.932 67.8221 228.951 68.3008Z" fill="#37474F"/>
<path d="M136.75 208.917C136.721 208.937 136.689 208.951 136.656 208.957C136.598 208.989 136.536 209.011 136.472 209.023H136.372C136.31 209.044 136.246 209.057 136.182 209.063H136.029C135.803 209.096 135.574 209.096 135.348 209.063C135.06 209.03 134.781 208.933 134.526 208.778C134.161 208.502 133.859 208.133 133.645 207.701C133.431 207.269 133.311 206.787 133.295 206.294V127.23C133.312 126.722 133.444 126.227 133.68 125.792L136.135 127.375C135.899 127.812 135.767 128.31 135.75 128.82V207.924C135.73 208.115 135.76 208.31 135.837 208.483C135.914 208.655 136.034 208.8 136.182 208.897C136.247 208.934 136.317 208.956 136.389 208.964C136.47 208.977 136.552 208.977 136.632 208.964L136.75 208.917Z" fill="#263238"/>
<path d="M143.097 149.439V161.915C143.097 162.849 143.689 163.24 144.405 162.763L158.957 153.348C159.338 153.069 159.654 152.694 159.881 152.253C160.108 151.813 160.24 151.318 160.265 150.81V138.341C160.265 137.406 159.673 137.015 158.957 137.492L144.405 146.908C144.024 147.184 143.707 147.557 143.48 147.997C143.252 148.437 143.121 148.931 143.097 149.439Z" fill="#F57E88"/>
<mask id="mask0_21_997" style="mask-type:luminance" maskUnits="userSpaceOnUse" x="143" y="137" width="18" height="26">
<path d="M143.097 149.439V161.915C143.097 162.849 143.689 163.24 144.405 162.763L158.957 153.348C159.338 153.069 159.654 152.694 159.881 152.253C160.108 151.813 160.24 151.318 160.265 150.81V138.341C160.265 137.406 159.673 137.015 158.957 137.492L144.405 146.908C144.024 147.184 143.707 147.557 143.48 147.997C143.252 148.437 143.121 148.931 143.097 149.439Z" fill="white"/>
</mask>
<g mask="url(#mask0_21_997)">
<path d="M162.583 139.496L140.511 153.78L140.807 154.353L162.879 140.07L162.583 139.496Z" fill="white"/>
<path d="M148.319 149.3H147.727V155.66H148.319V149.3Z" fill="white"/>
<path d="M155.678 144.569H155.087V150.916H155.678V144.569Z" fill="white"/>
<path d="M162.583 145.87L140.511 160.154L140.807 160.727L162.879 146.444L162.583 145.87Z" fill="white"/>
</g>
<path d="M143.684 139.341C143.619 139.301 143.59 139.195 143.59 139.023V132.099C143.586 131.945 143.618 131.791 143.684 131.655C143.758 131.517 143.864 131.405 143.992 131.331L146.63 129.621C147.287 129.197 147.784 129.071 148.115 129.25C148.447 129.429 148.612 129.866 148.612 130.575C148.608 130.956 148.538 131.332 148.405 131.682C148.279 132.043 148.092 132.373 147.855 132.656C148.447 132.523 148.778 132.908 148.778 133.815C148.773 134.27 148.692 134.719 148.541 135.14C148.373 135.627 148.129 136.076 147.819 136.466C147.48 136.895 147.08 137.26 146.636 137.546L143.998 139.248C143.862 139.387 143.755 139.387 143.684 139.341ZM146.376 133.007C146.606 132.866 146.8 132.66 146.938 132.411C147.069 132.169 147.137 131.891 147.133 131.609C147.133 131.291 147.074 131.105 146.95 131.046C146.826 130.986 146.636 131.046 146.358 131.211L145.057 132.059V133.848L146.376 133.007ZM146.524 136.22C146.761 136.071 146.959 135.854 147.096 135.591C147.234 135.328 147.306 135.028 147.305 134.723C147.305 134.392 147.228 134.186 147.08 134.12C146.971 134.091 146.858 134.09 146.748 134.116C146.639 134.142 146.536 134.196 146.447 134.272L145.075 135.167V137.155L146.524 136.22Z" fill="white"/>
<path d="M148.783 135.981C148.777 135.913 148.777 135.844 148.783 135.776L151.114 127.09C151.145 126.962 151.191 126.84 151.25 126.725C151.307 126.632 151.385 126.557 151.475 126.507L152.132 126.083C152.226 126.023 152.297 125.997 152.345 126.016C152.408 126.058 152.457 126.124 152.481 126.202L154.812 131.88C154.82 131.935 154.82 131.991 154.812 132.046C154.813 132.108 154.798 132.17 154.77 132.223C154.742 132.277 154.701 132.321 154.652 132.351L153.563 133.053C153.511 133.098 153.446 133.121 153.38 133.119C153.339 133.119 153.309 133.066 153.274 132.993L152.865 131.887L150.676 133.305L150.268 134.935C150.249 135.029 150.215 135.118 150.168 135.2C150.117 135.268 150.055 135.324 149.984 135.365L148.949 136.074C148.837 136.14 148.783 136.114 148.783 135.981ZM152.57 130.774L151.818 128.74L151.067 131.741L152.57 130.774Z" fill="white"/>
<path d="M155.708 131.576C155.643 131.536 155.613 131.43 155.613 131.264V124.347C155.609 124.194 155.641 124.043 155.708 123.91C155.784 123.768 155.895 123.653 156.027 123.579L156.583 123.221C156.652 123.167 156.731 123.133 156.814 123.121C156.878 123.131 156.937 123.167 156.98 123.221L159.5 126.189V121.849C159.495 121.692 159.528 121.537 159.595 121.399C159.67 121.262 159.776 121.15 159.902 121.074L160.577 120.637C160.73 120.537 160.831 120.511 160.896 120.557C160.961 120.604 160.985 120.71 160.985 120.889V127.786C160.989 127.938 160.959 128.088 160.896 128.223C160.818 128.362 160.707 128.474 160.577 128.548L159.985 128.919C159.918 128.97 159.841 128.999 159.76 129.005C159.697 128.997 159.638 128.964 159.595 128.912L157.068 125.957V130.304C157.072 130.453 157.042 130.602 156.98 130.734C156.902 130.875 156.791 130.989 156.66 131.066L155.986 131.496C155.873 131.596 155.767 131.616 155.708 131.576Z" fill="white"/>
<path d="M166.964 124.221C166.966 124.284 166.951 124.345 166.923 124.399C166.895 124.453 166.854 124.497 166.805 124.526L165.681 125.248C165.63 125.284 165.574 125.311 165.515 125.328C165.475 125.334 165.435 125.322 165.403 125.295L163.415 123.201V126.262C163.419 126.414 163.388 126.564 163.326 126.699C163.246 126.836 163.136 126.948 163.007 127.024L162.332 127.461C162.19 127.554 162.09 127.58 162.025 127.541C161.96 127.501 161.93 127.388 161.93 127.223V120.292C161.925 120.137 161.958 119.984 162.025 119.848C162.1 119.709 162.206 119.595 162.332 119.517L163.007 119.08C163.161 118.987 163.261 118.96 163.326 119C163.391 119.04 163.415 119.153 163.415 119.331V122.333V122.273L165.338 117.708C165.365 117.637 165.403 117.572 165.45 117.516C165.506 117.458 165.568 117.407 165.633 117.364L166.74 116.648C166.852 116.582 166.905 116.615 166.905 116.747C166.902 116.824 166.883 116.898 166.852 116.966L164.716 121.896L166.911 124.069C166.93 124.088 166.945 124.111 166.954 124.138C166.964 124.164 166.967 124.193 166.964 124.221Z" fill="white"/>
<path d="M171.638 120.505C171.046 120.167 170.774 119.332 170.774 117.994C170.76 116.725 171.05 115.476 171.614 114.376C172.199 113.285 173.029 112.385 174.022 111.765C174.394 111.513 174.791 111.311 175.205 111.163C175.495 111.05 175.806 111.015 176.11 111.063C176.123 111.065 176.136 111.069 176.148 111.077C176.159 111.084 176.17 111.094 176.178 111.105C176.186 111.117 176.192 111.13 176.196 111.145C176.199 111.159 176.2 111.174 176.199 111.189C176.194 111.269 176.176 111.348 176.146 111.421L175.826 112.335C175.804 112.416 175.761 112.488 175.702 112.541C175.655 112.568 175.601 112.58 175.548 112.574C175.066 112.572 174.594 112.732 174.193 113.031C173.589 113.415 173.09 113.976 172.75 114.654C172.401 115.387 172.225 116.209 172.241 117.039C172.241 117.954 172.419 118.53 172.773 118.756C173.016 118.859 173.278 118.889 173.535 118.844C173.791 118.798 174.032 118.679 174.235 118.497C174.779 118.158 175.262 117.709 175.66 117.172C175.704 117.106 175.755 117.048 175.814 117C175.856 117 175.897 117 175.938 117.046L176.287 117.603C176.309 117.636 176.321 117.675 176.323 117.715C176.306 117.806 176.27 117.89 176.216 117.96C175.633 118.811 174.892 119.512 174.045 120.014C173.016 120.677 172.206 120.836 171.638 120.505Z" fill="white"/>
<path d="M176.67 117.947C176.665 117.881 176.665 117.815 176.67 117.748L179.036 109.056C179.062 108.926 179.108 108.803 179.172 108.691C179.231 108.604 179.306 108.532 179.391 108.479L180.048 108.048C180.111 107.997 180.189 107.976 180.267 107.989C180.332 108.028 180.381 108.095 180.403 108.174L182.733 113.846C182.742 113.903 182.742 113.961 182.733 114.018C182.736 114.08 182.722 114.141 182.693 114.194C182.665 114.247 182.623 114.289 182.574 114.316L181.485 115.025C181.431 115.067 181.367 115.09 181.302 115.092C181.277 115.081 181.255 115.064 181.236 115.042C181.218 115.02 181.204 114.994 181.195 114.966L180.781 113.859L178.598 115.27L178.196 116.907C178.174 116.998 178.14 117.085 178.095 117.165C178.044 117.237 177.979 117.296 177.906 117.338L176.824 118.04C176.723 118.113 176.67 118.08 176.67 117.947ZM180.456 112.739L179.71 110.712L178.953 113.713L180.456 112.739Z" fill="white"/>
<path d="M183.578 113.547C183.519 113.507 183.483 113.401 183.483 113.229V106.325C183.482 106.171 183.515 106.019 183.578 105.881C183.656 105.744 183.764 105.633 183.892 105.557L186.169 104.086C187.688 103.096 188.449 103.463 188.453 105.186C188.456 105.726 188.364 106.262 188.181 106.763C187.994 107.28 187.724 107.754 187.382 108.161L188.328 110.228C188.338 110.276 188.338 110.325 188.328 110.374C188.329 110.443 188.311 110.511 188.277 110.57C188.244 110.629 188.196 110.676 188.139 110.705L187.145 111.367C187.089 111.413 187.024 111.442 186.956 111.453C186.909 111.453 186.873 111.414 186.844 111.341L186.015 109.353L184.945 110.016V112.295C184.954 112.453 184.921 112.61 184.849 112.746C184.777 112.882 184.67 112.99 184.542 113.057L183.868 113.494C183.75 113.547 183.643 113.587 183.578 113.547ZM185.944 107.968C186.253 107.784 186.517 107.518 186.713 107.193C186.89 106.88 186.98 106.516 186.974 106.146C186.974 105.742 186.891 105.484 186.737 105.411C186.583 105.338 186.347 105.411 186.033 105.583L184.968 106.259V108.585L185.944 107.968Z" fill="white"/>
<path d="M189.294 109.858C189.229 109.818 189.199 109.712 189.199 109.54V102.642C189.195 102.487 189.227 102.334 189.294 102.198C189.367 102.058 189.473 101.943 189.601 101.867L191.495 100.648C192.52 99.9809 193.299 99.7932 193.831 100.085C194.364 100.376 194.63 101.204 194.63 102.569C194.66 103.803 194.381 105.022 193.825 106.088C193.247 107.118 192.445 107.968 191.495 108.559L189.601 109.778C189.459 109.871 189.353 109.897 189.294 109.858ZM191.565 107.101C192.063 106.793 192.473 106.334 192.749 105.776C193.041 105.079 193.177 104.313 193.145 103.543C193.145 102.616 193.015 102.046 192.749 101.834C192.482 101.622 192.086 101.695 191.565 102.039L190.684 102.609V107.691L191.565 107.101Z" fill="white"/>
<path d="M143.097 173.238V176.199C143.097 177.134 143.689 177.525 144.405 177.048L158.957 167.633C159.336 167.352 159.65 166.977 159.875 166.536C160.1 166.096 160.229 165.602 160.253 165.095V162.133C160.253 161.199 159.661 160.808 158.946 161.285L144.393 170.7C144.014 170.98 143.699 171.355 143.474 171.796C143.249 172.237 143.12 172.731 143.097 173.238Z" fill="#EBEBEB"/>
<path d="M163.541 160.02V162.982C163.541 163.916 164.132 164.307 164.848 163.823L179.407 154.415C179.787 154.136 180.103 153.761 180.331 153.32C180.558 152.88 180.689 152.385 180.714 151.877V148.915C180.714 147.981 180.123 147.59 179.407 148.067L164.848 157.482C164.467 157.76 164.15 158.135 163.923 158.576C163.696 159.017 163.565 159.511 163.541 160.02Z" fill="#EBEBEB"/>
<path d="M183.992 146.795V149.756C183.992 150.691 184.584 151.082 185.3 150.605L199.853 141.189C200.233 140.913 200.55 140.54 200.778 140.1C201.005 139.66 201.136 139.166 201.16 138.658V135.69C201.16 134.756 200.568 134.365 199.853 134.849L185.3 144.257C184.919 144.536 184.603 144.911 184.376 145.351C184.149 145.792 184.017 146.287 183.992 146.795Z" fill="#EBEBEB"/>
<path d="M204.427 133.577V136.538C204.427 137.473 205.019 137.864 205.735 137.387L220.293 127.972C220.674 127.694 220.991 127.319 221.219 126.878C221.446 126.437 221.577 125.942 221.601 125.434V122.472C221.601 121.538 221.009 121.147 220.293 121.624L205.735 131.039C205.354 131.318 205.038 131.693 204.811 132.133C204.584 132.574 204.452 133.069 204.427 133.577Z" fill="#EBEBEB"/>
<path d="M213.463 137.155L210.126 139.315C209.899 139.481 209.709 139.705 209.574 139.969C209.438 140.232 209.36 140.528 209.345 140.832V141.978C209.345 142.535 209.694 142.766 210.126 142.482L213.463 140.328C213.692 140.162 213.883 139.937 214.02 139.672C214.157 139.407 214.235 139.11 214.249 138.804V137.658C214.249 137.102 213.9 136.876 213.463 137.155Z" fill="#F57E88"/>
<path d="M220.814 132.397L217.477 134.551C217.25 134.718 217.06 134.944 216.925 135.208C216.789 135.473 216.711 135.77 216.696 136.074V137.221C216.696 137.777 217.045 138.003 217.477 137.724L220.814 135.564C221.043 135.399 221.233 135.175 221.37 134.912C221.507 134.648 221.586 134.352 221.6 134.047V132.901C221.6 132.344 221.251 132.099 220.814 132.397Z" fill="#F57E88"/>
<path d="M178.703 167.567L220.244 140.713C220.966 140.243 221.551 140.627 221.551 141.561V142.933C221.527 143.441 221.396 143.936 221.169 144.377C220.942 144.818 220.625 145.192 220.244 145.47L178.703 172.331C177.981 172.801 177.396 172.423 177.396 171.489V170.111C177.42 169.602 177.551 169.106 177.778 168.664C178.005 168.222 178.322 167.846 178.703 167.567Z" fill="#F57E88"/>
<path d="M90.6367 57.2295V125.354C90.6611 125.852 90.7895 126.336 91.0114 126.767C91.2334 127.199 91.5427 127.566 91.9145 127.839L94.1626 129.29C94.5595 129.515 94.9983 129.633 95.4433 129.633C95.8884 129.633 96.3271 129.515 96.7241 129.29L135.011 104.537C135.384 104.264 135.695 103.897 135.918 103.466C136.141 103.034 136.27 102.55 136.295 102.052V33.9403C136.271 33.4422 136.142 32.9575 135.919 32.5257C135.696 32.094 135.385 31.7273 135.011 31.4557L132.769 30.0047C132.372 29.7794 131.933 29.662 131.488 29.662C131.043 29.662 130.605 29.7794 130.208 30.0047L91.9145 54.7647C91.545 55.0359 91.2371 55.3999 91.0153 55.8278C90.7935 56.2557 90.6638 56.7356 90.6367 57.2295Z" fill="#EBEBEB"/>
<path d="M136.284 33.7084C136.195 32.9663 135.657 32.6947 135.012 33.1121L96.7245 57.892C96.3444 58.1574 96.0308 58.5268 95.8134 58.9654L91.0098 55.858C91.2284 55.4225 91.5392 55.0539 91.9149 54.7846L130.208 30.0047C130.605 29.7794 131.044 29.662 131.489 29.662C131.934 29.662 132.373 29.7794 132.77 30.0047L135.012 31.4557C135.356 31.7067 135.648 32.0379 135.867 32.4267C136.086 32.8154 136.229 33.2526 136.284 33.7084Z" fill="#F5F5F5"/>
<path d="M96.4986 129.403C96.4732 129.408 96.4471 129.408 96.4217 129.403C96.3728 129.429 96.3212 129.449 96.2679 129.462L96.0076 129.535C95.4911 129.643 94.9581 129.595 94.4636 129.396C94.3658 129.355 94.2709 129.307 94.1796 129.25L91.9316 127.799C91.5598 127.526 91.2505 127.159 91.0285 126.727C90.8066 126.296 90.6782 125.812 90.6538 125.315V57.2294C90.669 56.7311 90.7973 56.2455 91.0265 55.8181L95.8302 58.9255C95.6009 59.3529 95.4727 59.8386 95.4575 60.3368V128.462C95.4444 128.731 95.5132 128.997 95.6527 129.217C95.7342 129.327 95.8422 129.409 95.9638 129.452C96.0854 129.495 96.2156 129.499 96.3389 129.462L96.4986 129.403Z" fill="#E0E0E0"/>
<path d="M121.645 84.2758C123.319 85.528 125.467 85.6009 127.644 85.1437" stroke="#455A64" stroke-width="1.25" stroke-miterlimit="10" stroke-linecap="round"/>
<path d="M116.159 71.1432C117.934 70.5668 119.005 71.5474 119.194 74.3567C119.425 77.8153 119.354 81.0685 120.939 83.0628" stroke="#455A64" stroke-width="1.25" stroke-miterlimit="10" stroke-linecap="round"/>
<path d="M113.243 89.6948C111.906 86.0375 111.219 74.7474 115.017 71.8056" stroke="#455A64" stroke-width="1.25" stroke-miterlimit="10" stroke-linecap="round"/>
<path d="M124.7 96.6516C120.34 97.228 116.228 95.7637 113.903 91.192" stroke="#455A64" stroke-width="1.25" stroke-miterlimit="10" stroke-linecap="round"/>
<path d="M125.566 93.9816C118.55 94.8363 113.551 90.841 114.374 77.4572C114.456 76.1983 115.078 74.7539 115.912 74.2106H115.941C116.793 73.6872 117.657 74.3034 117.639 75.5755C117.515 85.1496 120.284 89.5954 127.294 88.204" stroke="#455A64" stroke-width="1.25" stroke-miterlimit="10" stroke-linecap="round"/>
<path d="M123.069 99.8453C114.296 100.508 109.599 93.9816 110.291 80.2201C110.521 75.6749 112.065 70.6394 115.106 68.6716C115.147 68.639 115.191 68.6102 115.236 68.5855C118.324 66.6839 120.732 68.6783 121.052 73.3427C121.359 77.8217 121.472 83.1089 128.08 81.8567" stroke="#455A64" stroke-width="1.25" stroke-miterlimit="10" stroke-linecap="round"/>
<path d="M117.075 102.337C118.405 102.87 119.804 103.154 121.216 103.178" stroke="#455A64" stroke-width="1.25" stroke-miterlimit="10" stroke-linecap="round"/>
<path d="M110.292 96.321C111.424 98.8111 113.312 100.768 115.616 101.84" stroke="#455A64" stroke-width="1.25" stroke-miterlimit="10" stroke-linecap="round"/>
<path d="M110.816 70.9645C107.03 78.7894 107.995 89.2844 109.562 94.3464" stroke="#455A64" stroke-width="1.25" stroke-miterlimit="10" stroke-linecap="round"/>
<path d="M122.987 72.8127C122.632 68.5657 121.668 65.6636 118.917 64.9812C116.722 64.4445 113.912 66.0016 111.682 69.4336" stroke="#455A64" stroke-width="1.25" stroke-miterlimit="10" stroke-linecap="round"/>
<path d="M128.355 78.9157C126.095 79.8035 123.693 79.2536 123.273 75.4107" stroke="#455A64" stroke-width="1.25" stroke-miterlimit="10" stroke-linecap="round"/>
<path d="M128.515 75.9929C126.148 76.0658 125.054 74.8864 124.48 70.1358C123.598 62.8476 120.232 59.7269 115.015 63.106C109.537 66.6441 106.247 75.4098 105.999 82.6583C105.52 96.3005 109.341 101.727 115.346 104.477C116.686 105.076 118.09 105.479 119.522 105.676" stroke="#455A64" stroke-width="1.25" stroke-miterlimit="10" stroke-linecap="round"/>
<path d="M125.554 66.0283C126.021 68.8972 126.27 72.8991 128.589 72.813" stroke="#455A64" stroke-width="1.25" stroke-miterlimit="10" stroke-linecap="round"/>
<path d="M120.424 58.7404C122.666 59.2109 124.346 61.2979 125.198 64.3723" stroke="#455A64" stroke-width="1.25" stroke-miterlimit="10" stroke-linecap="round"/>
<path d="M111.699 62.9936C114.065 60.2506 116.851 58.7598 119.194 58.6472" stroke="#455A64" stroke-width="1.25" stroke-miterlimit="10" stroke-linecap="round"/>
<path d="M104.882 76.0662C105.887 71.7682 107.732 67.7739 110.283 64.3719" stroke="#455A64" stroke-width="1.25" stroke-miterlimit="10" stroke-linecap="round"/>
<path d="M104.011 89.695C103.6 85.804 103.718 81.8656 104.36 78.014" stroke="#455A64" stroke-width="1.25" stroke-miterlimit="10" stroke-linecap="round"/>
<path d="M107.011 100.893C105.636 98.1365 104.703 95.1315 104.254 92.0143" stroke="#455A64" stroke-width="1.25" stroke-miterlimit="10" stroke-linecap="round"/>
<path d="M116.03 108.598C113.25 107.325 110.15 105.47 108.18 102.502" stroke="#455A64" stroke-width="1.25" stroke-miterlimit="10" stroke-linecap="round"/>
<path d="M112.933 110.586C104.598 106.769 101.693 96.7049 101.693 85.5075C101.693 74.3102 106.426 62.2515 114.998 56.9841C120.813 53.4195 128.569 57.2822 128.569 68.4796" stroke="#455A64" stroke-width="1.25" stroke-miterlimit="10" stroke-linecap="round"/>
<path d="M123.578 91.2457C124.625 91.3041 125.674 91.2575 126.714 91.1066" stroke="#455A64" stroke-width="1.25" stroke-miterlimit="10" stroke-linecap="round"/>
<path d="M117.855 87.7076C118.278 88.5965 118.875 89.3657 119.603 89.957C120.331 90.5483 121.17 90.9459 122.055 91.1198" stroke="#455A64" stroke-width="1.25" stroke-miterlimit="10" stroke-linecap="round"/>
<path d="M116.092 76.3773C115.808 80.2201 116.24 83.7516 117.216 86.2627" stroke="#455A64" stroke-width="1.25" stroke-miterlimit="10" stroke-linecap="round"/>
<path d="M118.66 52.1274C121.032 51.5875 123.498 52.0981 125.54 53.552" stroke="#455A64" stroke-width="1.25" stroke-miterlimit="10" stroke-linecap="round"/>
<path d="M108.206 59.2169C110.555 56.3404 113.472 54.119 116.724 52.7303" stroke="#455A64" stroke-width="1.25" stroke-miterlimit="10" stroke-linecap="round"/>
<path d="M105.28 108.804C106.139 110.003 107.219 110.981 108.445 111.673" stroke="#455A64" stroke-width="1.25" stroke-miterlimit="10" stroke-linecap="round"/>
<path d="M101.388 101.423C102.05 103.478 103.007 105.398 104.222 107.107" stroke="#455A64" stroke-width="1.25" stroke-miterlimit="10" stroke-linecap="round"/>
<path d="M8.49023 140.341C8.51173 139.9 8.62512 139.471 8.82133 139.088C9.01754 138.705 9.29112 138.379 9.62016 138.135L67.684 100.594C68.0362 100.395 68.4253 100.291 68.8198 100.291C69.2144 100.291 69.6034 100.395 69.9557 100.594L71.2335 101.422C71.5638 101.663 71.8388 101.988 72.0362 102.37C72.2335 102.752 72.3476 103.181 72.3693 103.622V153.467C72.3476 153.909 72.2335 154.338 72.0362 154.722C71.8389 155.105 71.5639 155.431 71.2335 155.673L13.1697 193.214C12.8185 193.413 12.4304 193.517 12.0368 193.517C11.6432 193.517 11.2551 193.413 10.9039 193.214L9.62607 192.393C9.29573 192.152 9.02074 191.827 8.8234 191.445C8.62605 191.063 8.51191 190.634 8.49023 190.193V140.341Z" fill="#F57E88"/>
<path opacity="0.4" d="M8.82129 139.089L12.0395 141.17L72.0378 102.37C71.8445 101.984 71.5679 101.658 71.2333 101.422L69.9495 100.594C69.5983 100.395 69.2102 100.291 68.8166 100.291C68.423 100.291 68.0349 100.395 67.6838 100.594L9.62584 138.135C9.28813 138.369 9.01081 138.698 8.82129 139.089Z" fill="white"/>
<path opacity="0.1" d="M8.48193 140.341V190.186C8.50382 190.629 8.61863 191.059 8.81703 191.442C9.01542 191.826 9.2918 192.151 9.62369 192.393L10.9015 193.221C11.0001 193.283 11.1029 193.336 11.2091 193.38C11.6504 193.541 12.1219 193.568 12.5757 193.459C12.6502 193.444 12.7234 193.422 12.7946 193.393C12.8421 193.38 12.8879 193.36 12.9306 193.333C12.8447 193.375 12.7521 193.396 12.6585 193.396C12.5649 193.396 12.4723 193.375 12.3864 193.333C12.2651 193.242 12.1684 193.116 12.1068 192.967C12.0453 192.819 12.0213 192.654 12.0373 192.492V142.634C12.0253 142.408 12.0757 142.183 12.1815 141.99C12.2873 141.797 12.4434 141.644 12.6289 141.554L12.0373 141.17L8.81914 139.089C8.61271 139.467 8.49659 139.898 8.48193 140.341Z" fill="black"/>
<path opacity="0.2" d="M12.0319 141.169L38.9193 152.433C39.8496 152.822 40.8706 152.845 41.8138 152.497C42.757 152.149 43.5661 151.451 44.1075 150.518L48.4497 143.098L72.2668 102.231L49.2898 143.363L72.3615 153.48C72.3393 153.928 72.2173 154.363 72.0065 154.745L49.2247 143.482L44.2021 152.473C43.6455 153.47 42.7864 154.21 41.7824 154.556C40.7784 154.901 39.6968 154.83 38.7359 154.355L35.1864 152.585L12.3632 193.32C12.2419 193.229 12.1452 193.102 12.0836 192.954C12.0221 192.806 11.998 192.641 12.0141 192.479V191.65L35.0326 152.559L12.0319 141.169Z" fill="black"/>
<path d="M217.169 2.89941C217.184 2.72739 217.16 2.55384 217.099 2.39507C217.038 2.23629 216.942 2.09749 216.82 1.9917H216.79L214.424 0.447921C214.28 0.372771 214.12 0.342348 213.962 0.359831C213.804 0.377314 213.653 0.442062 213.525 0.547307L176.811 24.181L175.823 20.4905C175.744 20.1582 175.553 19.8731 175.291 19.6954L172.901 18.1384C172.72 18.0209 172.514 17.9618 172.305 17.9676C172.096 17.9734 171.893 18.044 171.717 18.1715L155.969 28.3618C155.598 28.635 155.288 29.0021 155.066 29.4337C154.844 29.8652 154.716 30.3491 154.692 30.8464V89.6954C154.678 89.8673 154.703 90.0402 154.764 90.1987C154.825 90.3571 154.92 90.4961 155.041 90.6032H155.07L157.437 92.1469H157.466C157.609 92.2099 157.765 92.2319 157.917 92.2111C158.07 92.1903 158.216 92.1273 158.342 92.0277L215.855 54.8379C216.227 54.5647 216.536 54.1976 216.758 53.766C216.98 53.3345 217.109 52.8505 217.133 52.3533L217.169 2.89941Z" fill="#F57E88"/>
<path opacity="0.4" d="M175.269 19.6748C175.09 19.5709 174.89 19.5217 174.689 19.5322C174.487 19.5427 174.292 19.6124 174.122 19.7344L158.368 29.9181C157.992 30.1874 157.681 30.556 157.463 30.9914L155.061 29.4344C155.274 28.9947 155.586 28.6247 155.966 28.361L171.72 18.1774C171.896 18.0513 172.099 17.9816 172.307 17.9757C172.516 17.9699 172.722 18.0282 172.903 18.1443L175.269 19.6748Z" fill="white"/>
<path opacity="0.4" d="M216.729 1.91183C216.589 1.86117 216.441 1.84737 216.295 1.8715C216.149 1.89563 216.01 1.95704 215.889 2.05096L178.821 26.0027C178.67 26.1151 178.497 26.1848 178.317 26.206C178.137 26.2271 177.956 26.199 177.787 26.1241C177.619 26.0491 177.47 25.9296 177.352 25.7757C177.234 25.6219 177.152 25.4383 177.111 25.2407L176.827 24.1806L213.505 0.493938C213.683 0.370086 213.888 0.303592 214.097 0.301793C214.213 0.30007 214.327 0.332032 214.428 0.394552L216.729 1.91183Z" fill="white"/>
<path opacity="0.1" d="M157.294 91.9679C157.329 92.0248 157.37 92.0761 157.418 92.1203L155.093 90.6229C155.001 90.5514 154.926 90.4559 154.874 90.3447C154.848 90.2924 154.828 90.2368 154.815 90.179C154.77 90.0297 154.748 89.8728 154.75 89.7152V30.8463C154.747 30.7889 154.747 30.7314 154.75 30.6741C154.762 30.5538 154.78 30.4344 154.803 30.3163C154.803 30.2566 154.833 30.197 154.844 30.1374C154.898 29.9558 154.963 29.7786 155.04 29.6073C155.064 29.5478 155.091 29.4903 155.122 29.4351L157.524 30.9921C157.294 31.4191 157.166 31.905 157.152 32.4033V91.2458C157.146 91.3295 157.146 91.4137 157.152 91.4975C157.149 91.5439 157.149 91.5903 157.152 91.6367V91.7095L157.187 91.8023C157.214 91.864 157.25 91.9201 157.294 91.9679Z" fill="black"/>
<path d="M118.66 188.245C118.63 187.629 118.471 187.03 118.195 186.496C117.92 185.961 117.536 185.507 117.075 185.17L115.785 184.336C115.293 184.06 114.75 183.917 114.2 183.917C113.649 183.917 113.107 184.06 112.614 184.336L69.7778 212.018C69.3167 212.355 68.9328 212.809 68.6574 213.343C68.382 213.877 68.2227 214.476 68.1924 215.092V220.744C68.2227 221.359 68.382 221.959 68.6574 222.493C68.9328 223.027 69.3167 223.481 69.7778 223.818L71.0734 224.653C71.564 224.93 72.1061 225.075 72.6559 225.075C73.2056 225.075 73.7477 224.93 74.2384 224.653L117.075 196.971C117.537 196.634 117.921 196.181 118.197 195.646C118.472 195.112 118.631 194.512 118.66 193.896V188.245Z" fill="#37474F"/>
<path d="M68.1924 220.744C68.2217 221.36 68.3806 221.959 68.6561 222.493C68.9317 223.028 69.316 223.482 69.7778 223.818L71.0734 224.653C71.5206 224.903 72.0099 225.045 72.5095 225.069C73.009 225.093 73.5075 224.999 73.9721 224.792C73.2208 225.11 72.6529 224.639 72.6529 223.626V217.981C72.6713 217.36 72.8323 216.755 73.1203 216.225L68.6597 213.343C68.3725 213.871 68.2115 214.474 68.1924 215.092V220.744Z" fill="#263238"/>
<path d="M118.6 187.754C118.417 186.999 117.801 186.761 117.068 187.231L74.2314 214.92C73.761 215.243 73.3753 215.7 73.1133 216.245L68.6587 213.363C68.9202 212.82 69.3036 212.363 69.7709 212.037L112.601 184.349C113.094 184.074 113.637 183.93 114.187 183.93C114.737 183.93 115.28 184.074 115.772 184.349L117.068 185.19C117.465 185.479 117.806 185.855 118.069 186.296C118.333 186.737 118.513 187.233 118.6 187.754Z" fill="#455A64"/>
<path d="M78.1061 215.582C78.9403 215.045 79.6147 215.483 79.6147 216.556C79.5865 217.142 79.4351 217.712 79.173 218.219C78.9108 218.727 78.5453 219.158 78.1061 219.478C77.2779 220.015 76.6035 219.577 76.6035 218.504C76.632 217.919 76.7828 217.35 77.0438 216.842C77.3049 216.335 77.6687 215.903 78.1061 215.582Z" fill="#E6E6E6"/>
<path d="M83.0749 212.382C83.9031 211.845 84.5775 212.283 84.5775 213.356C84.5495 213.941 84.3989 214.51 84.1378 215.018C83.8767 215.526 83.5126 215.957 83.0749 216.278C82.2408 216.815 81.5723 216.377 81.5723 215.304C81.6003 214.719 81.7509 214.15 82.012 213.642C82.273 213.134 82.6372 212.703 83.0749 212.382Z" fill="#E6E6E6"/>
<path d="M88.0778 209.169C88.9119 208.632 89.5863 209.063 89.5863 210.143C89.5577 210.727 89.4061 211.296 89.144 211.803C88.8818 212.309 88.5165 212.739 88.0778 213.058C87.2496 213.595 86.5752 213.157 86.5752 212.084C86.6037 211.5 86.7545 210.932 87.0156 210.425C87.2766 209.919 87.6405 209.488 88.0778 209.169Z" fill="#E6E6E6"/>
<path d="M93.0354 205.948C93.8636 205.411 94.538 205.849 94.538 206.922C94.5095 207.506 94.3587 208.074 94.0976 208.581C93.8366 209.087 93.4727 209.518 93.0354 209.837C92.2013 210.374 91.5269 209.943 91.5269 208.863C91.5555 208.279 91.7071 207.71 91.9692 207.203C92.2314 206.697 92.5967 206.266 93.0354 205.948Z" fill="#E6E6E6"/>
<path d="M98.0153 202.729C98.8494 202.192 99.5238 202.629 99.5238 203.702C99.4947 204.288 99.343 204.857 99.0809 205.365C98.8188 205.873 98.4538 206.304 98.0153 206.624C97.1871 207.161 96.5127 206.724 96.5127 205.65C96.5407 205.065 96.6913 204.496 96.9524 203.988C97.2135 203.481 97.5776 203.049 98.0153 202.729Z" fill="#E6E6E6"/>
<path d="M102.998 199.508C103.826 198.972 104.501 199.409 104.501 200.482C104.472 201.067 104.322 201.636 104.061 202.144C103.8 202.651 103.436 203.083 102.998 203.404C102.164 203.941 101.49 203.504 101.49 202.43C101.518 201.845 101.669 201.275 101.931 200.767C102.194 200.259 102.559 199.828 102.998 199.508Z" fill="#E6E6E6"/>
<path d="M107.978 196.288C108.806 195.751 109.481 196.189 109.481 197.262C109.453 197.847 109.302 198.416 109.041 198.924C108.78 199.432 108.416 199.863 107.978 200.184C107.15 200.721 106.476 200.283 106.476 199.21C106.505 198.625 106.656 198.057 106.917 197.549C107.178 197.042 107.541 196.61 107.978 196.288Z" fill="#E6E6E6"/>
<path d="M112.93 193.055C113.764 192.518 114.438 192.949 114.438 194.029C114.41 194.614 114.258 195.182 113.996 195.689C113.734 196.196 113.369 196.626 112.93 196.944C112.102 197.481 111.427 197.044 111.427 195.97C111.456 195.386 111.607 194.818 111.868 194.312C112.129 193.805 112.493 193.375 112.93 193.055Z" fill="#E6E6E6"/>
<path d="M118.66 206.883C118.63 206.267 118.471 205.668 118.195 205.134C117.92 204.6 117.536 204.146 117.075 203.809L115.785 202.994C115.293 202.718 114.75 202.575 114.2 202.575C113.649 202.575 113.107 202.718 112.614 202.994L69.7778 230.676C69.316 231.012 68.9317 231.466 68.6561 232C68.3806 232.534 68.2217 233.134 68.1924 233.75V239.402C68.2227 240.018 68.382 240.617 68.6574 241.151C68.9328 241.685 69.3167 242.139 69.7778 242.476L71.0734 243.311C71.564 243.589 72.1061 243.733 72.6559 243.733C73.2056 243.733 73.7477 243.589 74.2384 243.311L117.075 215.582C117.537 215.246 117.921 214.792 118.197 214.258C118.472 213.724 118.631 213.124 118.66 212.508V206.883Z" fill="#37474F"/>
<path d="M68.1924 239.381C68.2227 239.997 68.382 240.596 68.6574 241.13C68.9328 241.665 69.3167 242.119 69.7778 242.456L71.0734 243.29C71.5206 243.541 72.0099 243.683 72.5095 243.707C73.009 243.731 73.5075 243.636 73.9721 243.43C73.2208 243.748 72.6529 243.277 72.6529 242.263V236.612C72.6721 235.993 72.833 235.391 73.1203 234.863L68.6597 231.98C68.3725 232.509 68.2115 233.111 68.1924 233.73V239.381Z" fill="#263238"/>
<path d="M118.6 206.379C118.417 205.624 117.801 205.386 117.068 205.856L74.2314 233.545C73.761 233.868 73.3753 234.325 73.1133 234.87L68.6587 231.988C68.9202 231.445 69.3036 230.988 69.7709 230.662L112.601 202.994C113.094 202.718 113.637 202.575 114.187 202.575C114.737 202.575 115.28 202.718 115.772 202.994L117.068 203.835C117.463 204.122 117.803 204.495 118.066 204.932C118.33 205.369 118.511 205.862 118.6 206.379Z" fill="#455A64"/>
<path d="M78.1061 234.24C78.9403 233.704 79.6147 234.141 79.6147 235.214C79.5855 235.8 79.4338 236.369 79.1717 236.877C78.9097 237.384 78.5446 237.816 78.1061 238.136C77.2779 238.673 76.6035 238.235 76.6035 237.162C76.6315 236.577 76.7822 236.008 77.0432 235.5C77.3043 234.992 77.6684 234.561 78.1061 234.24Z" fill="#E6E6E6"/>
<path d="M83.0749 231.02C83.9031 230.483 84.5775 230.921 84.5775 231.994C84.549 232.579 84.3982 233.148 84.1372 233.655C83.8762 234.163 83.5123 234.595 83.0749 234.916C82.2408 235.453 81.5723 235.015 81.5723 233.942C81.5993 233.357 81.7496 232.787 82.0107 232.279C82.2719 231.771 82.6365 231.34 83.0749 231.02Z" fill="#E6E6E6"/>
<path d="M88.0778 227.806C88.9119 227.263 89.5863 227.7 89.5863 228.774C89.5586 229.359 89.4075 229.93 89.1453 230.437C88.8831 230.945 88.5173 231.376 88.0778 231.696C87.2496 232.232 86.5752 231.795 86.5752 230.722C86.6037 230.138 86.7545 229.569 87.0156 229.063C87.2766 228.556 87.6405 228.126 88.0778 227.806Z" fill="#E6E6E6"/>
<path d="M93.0354 224.586C93.8636 224.049 94.538 224.48 94.538 225.56C94.5095 226.144 94.3587 226.712 94.0976 227.219C93.8366 227.725 93.4727 228.156 93.0354 228.475C92.2013 229.012 91.5269 228.581 91.5269 227.501C91.5555 226.917 91.7071 226.348 91.9692 225.841C92.2314 225.335 92.5967 224.905 93.0354 224.586Z" fill="#E6E6E6"/>
<path d="M98.0153 221.366C98.8494 220.83 99.5238 221.267 99.5238 222.34C99.4952 222.925 99.3436 223.494 99.0815 224C98.8193 224.507 98.454 224.937 98.0153 225.256C97.1871 225.792 96.5127 225.362 96.5127 224.288C96.5407 223.703 96.6913 223.134 96.9524 222.626C97.2135 222.119 97.5776 221.687 98.0153 221.366Z" fill="#E6E6E6"/>
<path d="M102.998 218.146C103.826 217.609 104.501 218.047 104.501 219.12C104.471 219.705 104.32 220.273 104.059 220.781C103.798 221.288 103.435 221.72 102.998 222.042C102.164 222.579 101.49 222.141 101.49 221.068C101.517 220.482 101.669 219.912 101.931 219.404C102.193 218.896 102.559 218.465 102.998 218.146Z" fill="#E6E6E6"/>
<path d="M107.978 214.92C108.806 214.383 109.481 214.82 109.481 215.894C109.452 216.478 109.302 217.048 109.04 217.555C108.779 218.063 108.416 218.494 107.978 218.815C107.15 219.352 106.476 218.915 106.476 217.842C106.504 217.257 106.655 216.688 106.916 216.18C107.177 215.672 107.541 215.241 107.978 214.92Z" fill="#E6E6E6"/>
<path d="M112.93 211.712C113.764 211.169 114.438 211.606 114.438 212.68C114.408 213.262 114.255 213.828 113.993 214.332C113.731 214.836 113.367 215.264 112.93 215.582C112.102 216.118 111.427 215.681 111.427 214.608C111.458 214.027 111.611 213.463 111.872 212.96C112.132 212.457 112.495 212.03 112.93 211.712Z" fill="#E6E6E6"/>
<path d="M66.7862 221.757C66.7554 221.141 66.5959 220.542 66.3206 220.008C66.0452 219.474 65.6616 219.02 65.2007 218.682L63.9052 217.848C63.4145 217.57 62.8725 217.425 62.3227 217.425C61.7729 217.425 61.2309 217.57 60.7402 217.848L40.9399 230.675C40.4781 231.011 40.0938 231.465 39.8183 231.999C39.5427 232.533 39.3838 233.133 39.3545 233.749V258.059C39.3852 258.674 39.5447 259.273 39.8201 259.807C40.0955 260.341 40.4791 260.796 40.9399 261.133L42.2296 261.961C42.7219 262.237 43.2647 262.38 43.815 262.38C44.3653 262.38 44.9081 262.237 45.4005 261.961L65.1948 249.134C65.6577 248.798 66.0432 248.345 66.3198 247.811C66.5964 247.276 66.7562 246.676 66.7862 246.06V221.757Z" fill="#F57E88"/>
<path opacity="0.2" d="M39.3545 258.059C39.3852 258.674 39.5447 259.274 39.8201 259.808C40.0955 260.342 40.4791 260.796 40.9399 261.133L42.2296 261.961C42.6768 262.212 43.1661 262.354 43.6657 262.378C44.1652 262.402 44.6637 262.307 45.1283 262.1C44.3829 262.418 43.815 261.948 43.815 260.934V236.631C43.8347 236.014 43.9935 235.412 44.2765 234.882L39.8159 232C39.5322 232.53 39.3734 233.132 39.3545 233.749V258.059Z" fill="black"/>
<path opacity="0.3" d="M66.7343 221.254C66.545 220.505 65.9356 220.26 65.2021 220.737L45.4077 233.558C44.9372 233.881 44.5514 234.338 44.2896 234.883L39.8291 232.001C40.0945 231.459 40.4794 231.003 40.9472 230.675L60.7356 217.855C61.228 217.579 61.7708 217.436 62.3211 217.436C62.8714 217.436 63.4142 217.579 63.9065 217.855L65.2021 218.69C65.5994 218.978 65.9402 219.354 66.2036 219.795C66.467 220.236 66.6476 220.732 66.7343 221.254Z" fill="white"/>
<path d="M54.9963 231.265C56.9012 230.032 58.4452 231.026 58.4452 233.491C58.3804 234.831 58.0343 236.136 57.4351 237.299C56.8359 238.461 56.0003 239.449 54.9963 240.183C53.0914 241.415 51.5474 240.415 51.5474 237.95C51.6112 236.61 51.9569 235.306 52.5563 234.144C53.1557 232.982 53.9917 231.996 54.9963 231.265Z" fill="#FAFAFA"/>
<path d="M61.7992 244.397C61.7992 240.349 59.2613 238.712 56.1318 240.733L54.1737 241.998C51.0501 244.019 48.5122 248.942 48.5122 252.99V254.077C50.287 254.74 59.9652 248.458 61.7992 245.338V244.397Z" fill="#FAFAFA"/>
<path d="M244.958 174.012L237.747 169.375C237.463 169.202 237.043 169.322 236.563 169.752C236.297 169.977 236.031 170.196 235.759 170.415L235.463 170.627L234.931 171.004L234.546 171.243C234.392 171.342 234.233 171.448 234.073 171.541C233.913 171.634 233.783 171.7 233.635 171.78C233.487 171.859 233.351 171.945 233.203 172.018L232.718 172.25L232.316 172.436C232.138 172.515 231.961 172.588 231.783 172.654L231.417 172.807L230.825 172.999L230.488 173.111C230.287 173.178 230.08 173.231 229.896 173.284L229.595 173.363L228.944 173.509L228.678 173.562L227.986 173.675H227.761C227.518 173.675 227.276 173.734 227.033 173.747H226.844C226.589 173.747 226.341 173.747 226.087 173.781H225.909C225.649 173.781 225.388 173.781 225.128 173.781H225.01C224.738 173.781 224.471 173.741 224.199 173.714H224.122L223.288 173.595H223.247L222.549 173.443C222.403 173.263 222.233 173.109 222.046 172.986L221.963 172.933L214.864 168.334C214.273 167.957 213.728 168.228 213.385 169.196C208.729 182.129 198.82 195.248 192.218 198.527C192.087 198.588 191.96 198.661 191.84 198.746C191.757 198.799 191.686 198.859 191.603 198.918C191.52 198.978 191.538 198.971 191.503 199.004C191.403 199.086 191.308 199.174 191.219 199.269C191.124 199.375 191.029 199.481 190.941 199.601C190.468 200.175 190.206 200.927 190.207 201.708L191.159 230.768C191.159 239.235 194.378 248.18 200.944 252.454L208.15 257.092L208.244 257.151C211.578 259.222 215.41 260.061 219.195 259.55C220.609 259.291 221.921 258.559 222.957 257.449C237.362 240.759 244.384 218.133 244.384 205.643L245.337 175.258C245.354 174.582 245.212 174.178 244.958 174.012Z" fill="#F57E88"/>
<path opacity="0.15" d="M207.95 256.986L200.916 252.434C194.356 248.16 191.132 239.216 191.132 230.748L190.173 201.668C190.181 201.163 190.291 200.666 190.496 200.216C190.701 199.766 190.995 199.374 191.357 199.071C191.199 199.221 191.053 199.385 190.919 199.561L198.124 204.199C197.648 204.776 197.385 205.534 197.391 206.319L198.337 235.373C198.331 243.807 201.502 252.686 207.95 256.986Z" fill="black"/>
<path opacity="0.3" d="M244.958 174C244.68 173.834 244.266 173.96 243.775 174.39C237.267 179.943 227.595 179.949 222.661 173.516L222.572 173.403C225.005 173.932 227.51 173.878 229.922 173.244C232.335 172.61 234.6 171.411 236.569 169.726C237.078 169.289 237.492 169.176 237.752 169.348L244.958 174Z" fill="white"/>
<path opacity="0.5" d="M221.972 172.893C221.421 172.602 220.919 172.893 220.593 173.807C215.943 186.747 206.028 199.859 199.42 203.139C198.923 203.392 198.481 203.763 198.125 204.226L190.919 199.588C191.053 199.411 191.2 199.247 191.357 199.098L191.517 198.952C191.575 198.911 191.63 198.867 191.683 198.819L191.86 198.7C191.973 198.621 192.092 198.552 192.215 198.495C198.817 195.215 208.732 182.096 213.382 169.156C213.63 168.494 213.973 168.142 214.37 168.142C214.543 168.144 214.713 168.199 214.861 168.301L221.972 172.893Z" fill="white"/>
<path d="M257.336 201.907L253.491 199.416L238.411 239.216L240.985 240.879L257.336 201.907Z" fill="#455A64"/>
<path d="M234.493 228.628L230.642 226.143L226.506 235.943L230.358 238.427L234.493 228.628Z" fill="#455A64"/>
<path d="M241.978 252.547L230.365 238.428L234.5 228.628L240.99 240.879L257.341 201.907L263.405 208.533L241.978 252.547Z" fill="#37474F"/>
<path d="M226.506 235.943L230.358 238.427L241.97 252.547L238.125 250.089L226.506 235.943Z" fill="#263238"/>
</svg>
